<svg width="100%" height="100%" viewBox="0 0 323 471" version="1.1" id="svg73" xmlns="http://www.w3.org/2000/svg"><defs id="defs1"><clipPath id="clip-0"><path clip-rule="nonzero" d="M0 572h595v23H0Zm0 0" id="path1"/></clipPath></defs><path fill-rule="nonzero" fill="#8e7e6c" fill-opacity="1" d="M192 118h-11c-22 0-55 4-60 4l-3-1-6-3 1-1c15-6 71 1 72 1h7" id="path35"/><path fill-rule="nonzero" fill="#82634e" fill-opacity="1" d="M201 125c0 1-1 2-3 3-1-1-7-3-12-2s-43 2-49 3l-6-3c-1 0-3-1-4-1l-2-1c14-2 62-6 73-3 1 0 4 1 3 4" id="path36"/><path fill-rule="nonzero" fill="#b2a38e" fill-opacity="1" d="M250 47.5c-1 1.3-1 2.6-2 3.7-1 2-2 3-3 4-1 2-3 3-4 4-1 2-3 3-4 4-8 7-15 14-23 21-3 4-7 8-10 12-2 2-4 3.8-5 5.8-1 1-1 1-1 2l-1 1-1 1c0 1-1 2-1 2h-9l11-22.8 5-11-8 15-10 18.8c-3-1-5-1-8-1 1-6 18-59.2 18-68 1-9.4-1-12.9-1-13l-1 .4v-1.7c-1 0-1 0-1-.1v-5.8c1-1.9 2-3.7 3-5.3 3-3.1 7-5.22 10-7.02 4-1.7 8-3.1 13-3.7 2-.3 4-.4 6-.2 0 .1 1 .1 1 .3 1 .1 1 .2 1 .4 1 .4 2 .9 2 1.5V7.18c0 1.1 0 2.3-1 3.42 0 2.3 0 4.6 1 6.8 0 1.8 1 3.6 1 5.3 1 2.5 3 4.9 5 7 1 1.7 3 3.2 5 4.5 1 1.4 3 2.8 4 4.4 3 2.7 6 5.8 8 8.9" id="path37"/><path fill-rule="nonzero" fill="#8e7e6c" fill-opacity="1" d="m197 85.2 20-28-21 48.8-1 2-21-1 19-62.4s2-9.8-1-19.9c-1 0-1 0-1-.1v-5.8c1-1.9 2-3.7 3-5.3 3-3.1 7-5.22 10-7.02 4-1.7 8-3.1 13-3.7 2-.3 4-.4 6-.2 0 .1 1 .1 1 .3 1 .1 1 .2 1 .4 1 .4 2 .9 2 1.5V7.18c0 1.1 0 2.3-1 3.42 0 2.3 0 4.6 1 6.8 0 1.8 1 3.6 1 5.3l-34 66.5Zm0 0" id="path38"/><path fill-rule="nonzero" fill="#66584b" fill-opacity="1" d="m193 44.6-10 52.6 10-14-11 25.8-8-2Zm0 0" id="path39"/><path fill-rule="nonzero" fill="#b2a38e" fill-opacity="1" d="M193 38.9c-1 8.9-19 67.1-19 68.1h-30c0-3-1-6-1-7.8 0-1 0-1-1-1 0-3-1-5-2-8-1-5-3-11-5-16 1 5 3 11 4 17 1 2 2 5 2 8 1 1.8 1 4.8 2 7.8h-24c-1-1-2-3-3-4s-3-2-4-3c-2-1.8-4-3.8-6-4.8-1-1-2-1-3-2 3 2 6 5 8 6.8l4 4c1 1 1 2 2 3h-2c-4-5-10-8.8-16-12.8s-12-8-19-11c-3-2-6-3-9-5-4-1-7-2-10-4-4-1-7-3-10-5l-6-6 3-3 1-1c1-1 2-1 2-2h2l1 1h1l2 2c1 1 1 2 3 2h4c1-1 1-2 2-3 1-2 2-3 3-5 1-3 3-5.7 5-7.7V46c2-1 3-1.4 5-1.4l1 .1c0 .1 1 .1 1 .3l1 .4c1 .1 1 .3 2 .3 2 .4 4-.2 6-.8 2-.7 3-1.7 5-2.7 6-4.2 11-9.6 16-14.9 3-2.7 6-5.2 8-7.1 2-1 3-1.8 5-2.5s3-1.3 5-1.8c2-.6 4-.9 6-1.1 2-.1 3-.1 5-.1 1 0 3 .2 5 .3 2 .3 3 .7 5 .9 4 .3 8 .1 12-.3 2-.3 3-.6 5-1 1-.2 2-.2 3-.4 1 .1 1 0 2 .2 4 .5 7 2.1 10 4.1 0 .4 1 .7 1 1 3 1.8 5 3.9 7 6.1l1 1.4c0 .1 2 3.3 2 11.9" id="path40"/><path fill-rule="nonzero" fill="#8e7e6c" fill-opacity="1" d="M183 19.5c0 28.6-14 82.5-16 87.5h-15c-1-43.8-12-79.5-17-92.2 2-.1 3-.1 5-.1 1 0 3 .2 5 .3 2 .3 3 .7 5 .9 4 .3 8 .1 12-.3 2-.3 3-.6 5-1 1-.2 2-.2 3-.4 1 .1 1 0 2 .2 4 .5 7 2.1 10 4.1 0 .4 1 .7 1 1" id="path41"/><path fill-rule="nonzero" fill="#8e7e6c" fill-opacity="1" d="m129 108-12-1c-1-3-6-7-11-11.8-16-15-42-33-42-33 1-1 1-2 2-3 1-2 2-3 3-5 1-3 3-5.7 5-7.7 29 14.7 50 51.7 54 60.5l1 1" id="path42"/><path fill-rule="nonzero" fill="#8e7e6c" fill-opacity="1" d="M143 107h-9c-3-22.8-44-62.1-44-62.1 2-.7 3-1.7 5-2.7 6-4.2 11-9.6 16-14.9 3-2.7 6-5.2 8-7.1 2-1 3-1.8 5-2.5 15 32.8 18 64.5 18 80.5 1 4.8 1 8.8 1 8.8" id="path43"/><path fill-rule="nonzero" fill="#cec5b8" fill-opacity="1" d="M222 158c-1 0-2-1-3-1-9-2-18-5-28-8-4-4-7-9-9-12v-1c-2-3-3-6-4-7 4 0 7-1 8-1h5c3 0 6 1 7 2 1 2 13 19 24 28" id="path44"/><path fill-rule="nonzero" fill="#b2a38e" fill-opacity="1" d="M219 157c-9-2-18-5-28-8-4-4-7-9-9-12v-1c-2-3-3-6-4-7 0 0 4-1 8-1h5c3 0 6 1 7 2 1 2 13 19 24 28-1 0-2-1-3-1" id="path45"/><path fill-rule="nonzero" fill="#8e7e6c" fill-opacity="1" d="M204 153s-12-9-12-18l8 8s-9-12-9-15c0 0-7-3-14 0 0 0 5 15 14 21 0 0 8 4 13 4" id="path46"/><path fill-rule="nonzero" fill="#cec5b8" fill-opacity="1" d="M187 148c-1-1-3-2-5-2-3-1-5-2-8-3-2-1-4-2-7-2-4-2-8-3-12-5-3-1-6-3-10-4-1-1-3-1-4-2h22c2-1 4-1 6-1h8c0 2 3 10 10 19" id="path47"/><path fill-rule="nonzero" fill="#b2a38e" fill-opacity="1" d="M174 143c-9-3-19-7-29-11-1 0-3-1-4-2 6 0 18 0 28-1 2 5 4 10 5 14" id="path48"/><path fill-rule="nonzero" fill="#8e7e6c" fill-opacity="1" d="M167 141c-4-2-8-3-12-5-1-3-2-5-2-6l-1-1 11 1c2 3 3 6 4 11" id="path49"/><path fill-rule="nonzero" fill="#66584b" fill-opacity="1" d="M115 132c-2-1-3-1-4-2l-3-2c0 1-1 2-1 4h1c0 1 2 1 7 0Zm0 0" id="path50"/><path fill-rule="nonzero" fill="#cec5b8" fill-opacity="1" d="M318 415c0 7-2 13-6 19-3 5-9 9-15 12-1 0-1 1-2 1l-3 1c-2 0-3 1-5 1-3 1-7 2-10 3-14 3-28 5-43 6l-42 3c-2-1-4-1-6-1-1 0-3 0-5 1h-10c-6 1-13 1-20 1-13 1-26 1-39 0s-27-2-39-5c-4 0-7-1-10-2s-6-1-9-3c-2 0-3-1-5-1-1-1-3-1-4-2l-2-1-2-1c-1 0-2-1-2-1s-1 0-1-1h-1l-1-1h-1c-7-1-15-3-20-7-2-1-4-4-5-6v-2l-.95-3v-6c-1-7 0-15 0-22 0-8 .95-16 .95-23v-1c-.95-23 0-45 3-68 2-11 5-22 8-32 2-6 4-11 6-16 2-3 3-5 4-8l5-7c8-14 18-27 28-40 4-5 7-10 11-16l15-18c9-12 18-24 28-35h1l4 2c2 1 5 3 8 4l6 3c4 1 8 3 12 4 4 2 7 3 11 4 1 1 3 1 4 2 2 0 4 1 6 2l9 3c7 1 13 3 19 5 2 1 4 1 5 2 5 4 9 8 13 13 3 3 5 5 7 8v1c2 2 4 5 6 8-2-3-4-6-5-9-2-3-5-6-7-8 0-1-1-2-2-3-2-3-5-6-8-9h1c8 2 16 4 24 7h5c6 7 11 15 16 23l12 27c8 18 15 37 21 56s11 38 16 57 9 39 13 58c2 7 3 14 3 21" id="path51"/><path fill-rule="nonzero" fill="#b2a38e" fill-opacity="1" d="M267 254c-14-8-24-21-28-36-3-11-9-22-16-31-2-4-5-8-8-12-2-3-5-6-7-9 8 2 16 4 24 7h1c16 35 34 80 34 81" id="path52"/><path fill-rule="nonzero" fill="#82634e" fill-opacity="1" d="M202 116c0 1 0 2-2 2 0 1-1 1-2 0-2-1-7-2-13-2-2 0-27-3-48-3-11 0-20 0-25 2v1l-2 1c-1 0-1-1-2-1 0-1 0-1-1-1 0 0 0-1 1-2 0-1 2-3 7-4 12-2 77 0 84 2 0 0 4 1 3 5" id="path53"/><path fill-rule="nonzero" fill="#82634e" fill-opacity="1" d="m241 167-1 1s-2 1-3 1h-4c-12-3-23-6-34-10-11-3-23-6-34-10l-33-12c-3-1-5-3-8-4l-4-1-4-2-4-2-4-3-1-1h-1c-1 0-1-1-1-1-1-1-1-2 0-3h1c0-1 0-1 1-1h3l1 1 2 1 4 2 9 4c6 2 12 5 18 7 13 5 25 10 37 15 12 4 25 8 37 12 2 0 4 0 5 1l5 1c3 1 7 1 10 1h2v1h1v2" id="path54"/><path fill-rule="nonzero" fill="#5c5c4a" fill-opacity="1" d="M318 415c0 6-2 13-6 19-3 5-9 9-15 12-1 0-1 1-2 1l-3 1c-2 0-3 1-5 1-3 1-7 2-10 3-14 3-28 5-43 6l-42 3c-2-1-4-1-6-1-1 0-3 0-5 1h-10c-6 1-13 1-20 1-13 1-26 1-39 0s-27-2-39-5c-4 0-7-1-10-2s-6-1-9-3c-2 0-3-1-5-1-1-1-3-1-4-2l-2-1-2-1c-1 0-2-1-2-1s-1 0-1-1h-1l-1-1h-1c-7-1-15-3-20-7-2-1-4-4-5-6v-2l-.95-3v-6c-1-7 0-15 0-22 0-8 .95-16 .95-23v-1c-.95-23 0-45 3-68 2-11 5-22 8-32 2-6 4-11 6-16 2-3 3-5 4-8l5-7c12-19 26-37 39-56 14-18 28-36 43-53h1l4 2c2 1 5 3 8 4 11 5 22 9 33 13 11 3 22 7 34 10 2 1 4 1 5 2 5 4 9 8 14 13 2 3 4 5 6 8l6 9c-2-3-3-6-5-9s-5-6-7-8c-3-5-7-8-10-12 8 2 17 4 25 7h5c6 7 11 15 16 23l12 27c8 18 15 37 21 56s11 38 16 57 9 39 13 58c2 7 3 14 3 21M108 132h-1c0-2 1-3 1-4l3 2c1 1 2 1 4 2-5 1-7 1-7 0m-2-8c-1 0-1-1-1-1-1-1-1-2 0-3h1c0-1 0-1 1-1h3l1 1 2 1 4 2 9 4c6 2 12 5 18 7 13 5 25 10 37 15 12 4 25 8 37 12 2 0 4 0 5 1l5 1c3 1 7 1 10 1h2v1h1v2l-1 1s-2 1-3 1h-4c-12-3-23-6-34-10-11-3-23-6-34-10l-33-12c-3-1-5-3-8-4l-4-2-4-1-4-2-4-3Zm2-11c0-1 2-3 7-4 12-2 77 0 84 2 0 0 4 1 3 5 0 0 0 1-2 2 0 1-1 1-2 0-2-1-7-2-13-2-2 0-27-3-48-3-11 0-20 0-25 2v1l-2 1c-1 0-2-1-3-2 0 0 0-1 1-2m-9-18.8c-6-4-12-8-19-11-3-2-6-3-9-5-4-1-7-2-10-4-4-1-7-3-10-5l-6-6 3-3 3-3h2l1 1h1l2 2c1 1 1 2 3 2h4c1-1 1-2 2-3 1-2 2-3 3-5 1-3.1 3-6.3 5-8.3 2-.9 3-1.3 5-1.3l1 .1c0 .1 1 .1 1 .3l1 .4c1 .1 1 .3 2 .3 2 .4 4-.2 6-.8 2-.7 3-1.7 5-2.7 6-4.2 11-9.6 16-14.9 3-2.7 6-5.2 8-7.1 3-2 7-3.4 10-4.3 4-.9 7-1.3 11-1.2 1 0 3 .2 5 .3 2 .3 3 .7 5 .9 4 .3 8 .1 12-.3 1-.3 3-.6 5-1 1-.2 2-.2 3-.4 1 .1 1 0 2 .2 4 .5 7 2.1 10 4.2 3 2 6 4.4 8 7l1 1.4v.1s2 3.2 2 11.8c-1 8.9-19 67.1-19 68.1h-30c0-3-1-6-1-7.8l-3-9c-1-5-3-11-5-16 1 5 3 11 4 17 1 2 2 5 2 8 1 1.8 1 4.8 2 7.8-10-1-19 0-24 0-1-1-2-3-3-4s-3-2-4-3c-3-2.8-6-4.8-9-6.8 3 2 6 5 8 6.8l4 4c1 1 1 2 2 3h-2c-4-5-10-8.8-16-12.8m92-75.4c1-1.9 2-3.7 3-5.3 3-3.1 7-5.22 10-7.02 4-1.7 8-3.1 13-3.7 2-.3 4-.4 6-.2 0 .1 1 .1 1 .3 1 .1 1 .2 1 .4 1 .4 2 .9 2 1.5V7.18c0 1.1 0 2.3-1 3.42 0 2.3 0 4.6 1 6.8 1 4.6 3 8.9 6 12.3 1 1.7 3 3.2 5 4.5 1 1.4 3 2.9 4 4.4 3 2.7 6 5.8 8 9-1 1.2-1 2.5-2 3.6-1 2-2 3-3 5-1 1-3 2-4 3-1 2-3 3-4 4-8 7-15 14-23 21-3 4-7 8-10 12-2 2-4 3.8-5 5.8-1 1-1 1-1 2l-1 1c-1 1-1 2-2 3h-9l16-33.8-18 33.8c-3-1-5-1-8-1 1-6 18-59.2 18-68 1-9.4-1-12.9-1-13l-1 .4-1-1.8v-5.8M121 122l-3-1-6-3 1-1c15-6 71 1 72 1h7c-21-1-65 4-71 4m80 3s0 2-3 3c-1-1-7-3-12-2s-43 2-49 3c-3-2-7-3-10-4l-2-1c14-2 62-6 73-3 1 0 4 1 3 4m-14 23c-1-1-3-2-5-2-12-4-24-9-37-14-1-1-3-1-4-2 8 0 25 0 36-1 0 2 3 10 10 19m35 10c-1 0-2-1-3-1-9-2-18-5-28-8-9-9-12-17-13-20 4 0 7-1 8-1 5-1 11 1 12 2 1 2 13 19 24 28m98 235c-4-20-9-39-14-58s-11-38-17-57-13-38-21-56c-4-9-9-18-14-27-4-8-9-16-15-23 2 0 3-1 4-2s1-2 2-3c0-1 0-2-1-3-1-2-2-2-3-3h-3c-3-1-6-1-9-2h-4c-9-8-22-25-25-30 3-1 3-4 3-4 1-2-1-4-2-5 3-2 3-4 3-4 1-4-2-6-4-7h-3l3-6c2-2 4-3.8 5-5.8l11-11c7-7 15-14 23-21 1-1 3-2 4-3 2-2 3-3 4-5 1-1 2-3 3-4 2-2 2-3.3 3-5.1l1-.7-1-.8c-2-4-5-7.1-8-10.3-2-1.5-4-3-5-4.4-2-1.4-4-2.6-5-4.2-3-3-5-6.7-6-10.7v-6.2c0-1.02 0-2.02 1-3.12v-3.9c-1-1.5-2-2.2-3-2.803-1-.2-2-.4-2-.6-1-.1-1-.2-2-.3-2-.2-5 0-7 .3-4 .803-8 2.303-12 4.103-4 1.9-8 4.2-11 7.72-3 2.7-4 6.2-4 9.9-2-1.9-4-3.6-6-5.2-3-2.1-7-3.9-10-4.5-1-.2-2-.1-3-.2-1 .1-2 .2-3 .4-2 .3-4 .6-6 .8-3 .4-7 .6-10 .2-7-1.3-15-2-23-.1-3 1-7 2.5-10 4.6-3 2-6 4.7-8 7.4-5 5.2-11 10.4-17 14.3-2 1.9-6 3.5-9 3.1 0-.1-1-.2-1-.3l-1-.4c-1-.2-1-.3-2-.4 0-.1-1-.1-1-.1-2-.2-5 .6-6 1.8-2 1.3-3 2.9-4 4.5s-2 3.2-3 5.2c-1 1-2 3-3 4 0 1-1 2-1 2h-1c-1 0-1-1-2-1l-2-2c-1 0-1-1-1-1-1 0-1-1-2-1h-4c-2 1-3 3-5 4-1 1-2 3-4 4v2c3 3 6 6 9 8s6 3 9 5c4 1 7 3 10 4 4 1 7 3 10 4 7 3 13 7 19 11 3 2 6 3.8 9 5.8l6 6c-4 1-6 2-7 4s-1 3 0 3c0 1 0 2 1 2h-1c-1 0-1 1-1 1-1 0-1 1-2 1 0 1-1 2-1 3s1 2 1 2c1 1 1 1 1 2h1l1 1c0 1-1 3-1 5 1 0 1 1 2 2 1 0 2 1 4 1 1 0 2 0 4-1-15 17-29 34-42 51-15 18-29 36-41 56l-5 7c-1 2-3 5-4 8-3 5-5 10-7 16-4 11-6.95 22-8.95 33-4 23-6 46-5 69 0 8-1 15-1 23-1.003 8-1.003 16-1.003 24v6l1.003 3v3c1 1 1 3 2 4 0 1 1 2 2 3 1 2 3 4 4.95 5 3 3 7 4 11 6 4 1 7 2 11 2v1h2l2 2 3 1 2 1c2 1 3 1 5 2s3 1 5 2c3 1 6 2 10 2 3 1 6 2 10 3 13 2 27 3 40 4 14 1 27 0 41 0 6-1 13-1 20-2h5c2 0 3-1 5-1h10c14 0 29-1 43-3s29-4 43-7c4-1 7-2 11-3 2 0 3-1 5-1l3-1c1-1 2-1 2-1 4-2 7-4 10-6 4-3 6-6 8-9 4-7 6-15 6-22v-11c-1-4-2-8-3-11" id="path55"/><path fill-rule="nonzero" fill="#b2a38e" fill-opacity="1" d="M318 415c0 7-2 13-6 19-3 5-9 9-15 12-1 0-1 1-2 1l-3 1c-2 0-3 1-5 1-3 1-7 2-10 3-14 3-28 5-43 6l-42 3c-2-1-4-1-6-1-1 0-3 0-5 1h-10c-6 1-13 1-20 1-13 1-26 1-39 0s-27-2-39-5c-4 0-7-1-10-2s-6-1-9-3c-2 0-3-1-5-1-1-1-3-1-4-2l-2-1-2-1c-1 0-2-1-2-1s-1 0-1-1h-1l-1-1h-1c-7-1-15-3-20-7-2-1-4-4-5-6v-2l-.95-3v-6c-1-7 0-15 0-22s0-13 .95-19v-5c-.95-23 0-45 3-68 2-11 5-22 8-32 2-6 4-11 6-16 2-3 3-5 4-8l5-7c8-14 18-27 28-40 0 0-64.953 118-19 218 0 0 35 44 154 19 0 0 28-7 37-29l-4 36s50-4 59-26c8-22 14-108-38-225l12 27c8 18 15 37 21 56s11 38 16 57 9 39 13 58c2 7 3 14 3 21" id="path56"/><path fill-rule="nonzero" fill="#8e7e6c" fill-opacity="1" d="M35 444c-7-1-15-3-20-7-2-1-4-4-5-6v-2l-.95-3v-6c-1-7 0-15 0-22s0-13 .95-19c7 43 25 65 25 65" id="path57"/><path fill-rule="nonzero" fill="#b2a38e" fill-opacity="1" d="M136 142c-1 7-3 15-5 27-9 39-66 73-63 53 3-19 36-69 36-69l-16 15c10-11 19-23 28-35l1 1 4 2c3 1 6 2 8 3 3 1 5 2 7 3" id="path58"/><path fill-rule="nonzero" fill="#8e7e6c" fill-opacity="1" d="m123 136-23 53s31-31 31-49Zm0 0" id="path59"/><path fill-rule="nonzero" fill="#b2a38e" fill-opacity="1" d="M187 264c-7 11-37-26-32-62 3-22-2-42-6-55l15 6c5 1 10 3 15 5 21 62 13 96 8 106" id="path60"/><path fill-rule="nonzero" fill="#8e7e6c" fill-opacity="1" d="M174 196c-12-10-12-30-12-30-1-6-2-11-2-15 1 1 3 1 4 2 2 0 4 1 6 2 4 19 4 41 4 41" id="path61"/><path fill-rule="nonzero" fill="#8e7e6c" fill-opacity="1" d="M250 47.5c-1 1.3-1 2.6-2 3.7-1 2-2 3-3 4-1 2-3 3-4 4-1 2-3 3-4 4-8 7-15 14-23 21-3 4-7 8-10 12l38-57.6c3 2.7 6 5.8 8 8.9" id="path62"/><path fill-rule="nonzero" fill="#8e7e6c" fill-opacity="1" d="M115 107c-4-5-10-8.8-16-12.8s-12-8-19-11c-3-2-6-3-9-5-4-1-7-2-10-4-4-1-7-3-10-5l-6-6 3-3 1-1s15 15 32 21c0 0 27 16 34 26.8" id="path63"/><path fill-rule="nonzero" fill="#66584b" fill-opacity="1" d="M192 118h-11c-43-1-63 3-63 3l-6-3 1-1c15-6 71 1 72 1h7" id="path64"/><path fill-rule="nonzero" fill="#66584b" fill-opacity="1" d="m241 167-1 1s-2 1-3 1h-4c-12-3-23-6-34-10-11-3-23-6-34-10l-33-12c-3-1-5-3-8-4l-4-1-4-2-4-2-4-3-1-1h-1c-1 0-1-1-1-1-1-1-1-2 0-3h1c0-1 0-1 1-1 0 0 6 13 83 35 0 0 39 14 51 13" id="path65"/><path fill-rule="nonzero" fill="#66584b" fill-opacity="1" d="M201 125c0 1-1 2-3 3-1-1-7-3-12-2s-43 2-49 3l-6-3c1 0 42 0 54-3 6-1 12 0 16 2" id="path66"/><path fill-rule="nonzero" fill="#66584b" fill-opacity="1" d="M202 116c0 1 0 2-2 2 0 1-1 1-2 0-2-1-7-2-13-2-2 0-27-3-48-3-11 0-20 0-25 2v1l-2 1c-1 0-1-1-2-1 0 0-1-5 17-5 18-1 62 0 69 2 2 1 5 2 8 3" id="path67"/><path fill-rule="nonzero" fill="#e8e2d9" fill-opacity="1" d="M77 236s42-11 58-70c0 0-11 84-58 70" id="path68"/><path fill-rule="nonzero" fill="#e8e2d9" fill-opacity="1" d="M267 258s-24-4-29-30c0 0-2 34 29 30" id="path69"/><path fill-rule="nonzero" fill="#aa8a74" fill-opacity="1" d="M119 126s42 21 61 24c0 0-52-20-61-24" id="path71"/><path fill-rule="nonzero" fill="#aa8a74" fill-opacity="1" d="M153 123s40-3 45-1c0 0-22-4-45 1" id="path72"/><path fill-rule="nonzero" fill="#aa8a74" fill-opacity="1" d="M154 110s37 0 44 4c0 0-9-7-44-4" id="path73"/></svg>