<svg version="1.1" width="100%" height="100%" viewBox="0 0 253 214" xml:space="preserve" id="coin" xmlns="http://www.w3.org/2000/svg"><defs id="defs1"><path id="rect4" d="M39-192h129v138H39z"/><path id="rect3" d="M70.5-123h86.8v60.7H70.5z"/></defs><g style="opacity:1;fill:none;fill-rule:nonzero;stroke:none;stroke-width:0;stroke-linecap:butt;stroke-linejoin:miter;stroke-miterlimit:10;stroke-dasharray:none" transform="matrix(2.81 0 0 2.81 .003 -19.7)" id="g13"><g id="g14" transform="rotate(-90 45 45)"><path d="M50.1 90h-8.7c-19 0-34.44-20.1-34.44-45S22.4 0 41.4 0h7.2Z" style="opacity:1;fill:#e4af18;fill-rule:nonzero;stroke:none;stroke-width:1px;stroke-linecap:butt;stroke-linejoin:miter;stroke-miterlimit:10;stroke-dasharray:none" stroke-linecap="round" id="path1"/><path d="M44.6 1.43H32.8c-2 .67-3.9 1.54-5.7 2.64h11.8c1.8-1.08 3.7-1.98 5.7-2.64Z" style="opacity:1;fill:#c49214;fill-rule:nonzero;stroke:none;stroke-width:1px;stroke-linecap:butt;stroke-linejoin:miter;stroke-miterlimit:10;stroke-dasharray:none" stroke-linecap="round" id="path2"/><path d="M33.1 8.45H21.3c-1 .92-1.9 1.85-2.8 2.95h11.8c.9-1.1 1.8-2.03 2.8-2.95Z" style="opacity:1;fill:#c49214;fill-rule:nonzero;stroke:none;stroke-width:1px;stroke-linecap:butt;stroke-linejoin:miter;stroke-miterlimit:10;stroke-dasharray:none" stroke-linecap="round" id="path3"/><path d="M26.1 17.2H14.3c-.6 1-1.1 1.9-1.6 2.9h11.8c.5-1 1-1.9 1.6-2.9Z" style="opacity:1;fill:#c49214;fill-rule:nonzero;stroke:none;stroke-width:1px;stroke-linecap:butt;stroke-linejoin:miter;stroke-miterlimit:10;stroke-dasharray:none" stroke-linecap="round" id="path4"/><path d="M22 26H10.2c-.36 1-.68 1.9-.97 2.9H21c.3-1 .6-1.9 1-2.9Z" style="opacity:1;fill:#c49214;fill-rule:nonzero;stroke:none;stroke-width:1px;stroke-linecap:butt;stroke-linejoin:miter;stroke-miterlimit:10;stroke-dasharray:none" stroke-linecap="round" id="path5"/><path d="M19.7 34.8H7.86c-.17.9-.32 1.9-.44 2.9H19.2c.1-1 .3-2 .5-2.9Z" style="opacity:1;fill:#c49214;fill-rule:nonzero;stroke:none;stroke-width:1px;stroke-linecap:butt;stroke-linejoin:miter;stroke-miterlimit:10;stroke-dasharray:none" stroke-linecap="round" id="path6"/><path d="M18.8 45v-1.5H6.98c-.01.5-.02 1-.02 1.5s.01 1 .02 1.5H18.8V45Z" style="opacity:1;fill:#c49214;fill-rule:nonzero;stroke:none;stroke-width:1px;stroke-linecap:butt;stroke-linejoin:miter;stroke-miterlimit:10;stroke-dasharray:none" stroke-linecap="round" id="path7"/><path d="M19.2 52.3H7.42c.12 1 .27 2 .44 2.9H19.7c-.2-.9-.4-1.9-.5-2.9Z" style="opacity:1;fill:#c49214;fill-rule:nonzero;stroke:none;stroke-width:1px;stroke-linecap:butt;stroke-linejoin:miter;stroke-miterlimit:10;stroke-dasharray:none" stroke-linecap="round" id="path8"/><path d="M21 61.1H9.23c.29 1 .61 1.9.97 2.9H22c-.4-1-.7-1.9-1-2.9Z" style="opacity:1;fill:#c49214;fill-rule:nonzero;stroke:none;stroke-width:1px;stroke-linecap:butt;stroke-linejoin:miter;stroke-miterlimit:10;stroke-dasharray:none" stroke-linecap="round" id="path9"/><path d="M24.5 69.9H12.7c.5 1 1 1.9 1.6 2.9h11.8c-.6-1-1.1-1.9-1.6-2.9Z" style="opacity:1;fill:#c49214;fill-rule:nonzero;stroke:none;stroke-width:1px;stroke-linecap:butt;stroke-linejoin:miter;stroke-miterlimit:10;stroke-dasharray:none" stroke-linecap="round" id="path10"/><path d="M30.3 78.6H18.5c.9 1.1 1.8 2 2.8 2.9h11.8c-1-.9-1.9-1.8-2.8-2.9Z" style="opacity:1;fill:#c49214;fill-rule:nonzero;stroke:none;stroke-width:1px;stroke-linecap:butt;stroke-linejoin:miter;stroke-miterlimit:10;stroke-dasharray:none" stroke-linecap="round" id="path11"/><path d="m38.3 85.6-11.2.3c1.8 1.1 3.8 2 5.8 2.7h11.7c-2.2-.7-4.3-1.8-6.3-3Z" style="opacity:1;fill:#c49214;fill-rule:nonzero;stroke:none;stroke-width:1px;stroke-linecap:butt;stroke-linejoin:miter;stroke-miterlimit:10;stroke-dasharray:none" stroke-linecap="round" id="path12"/><ellipse cx="48.6" cy="45" rx="34.4" ry="45" style="opacity:1;fill:#ffd949;fill-rule:nonzero;stroke:none;stroke-width:1px;stroke-linecap:butt;stroke-linejoin:miter;stroke-miterlimit:10;stroke-dasharray:none" id="ellipse12"/><ellipse cx="48.6" cy="45" rx="26.8" ry="35" style="opacity:1;fill:#e4af18;fill-rule:nonzero;stroke:none;stroke-width:1px;stroke-linecap:butt;stroke-linejoin:miter;stroke-miterlimit:10;stroke-dasharray:none" id="ellipse13"/></g></g></svg>