<?xml version="1.0" encoding="UTF-8" standalone="no"?>
<svg
   version="1.1"
   width="253"
   height="214"
   viewBox="0 0 253 214"
   xml:space="preserve"
   id="coin"
   sodipodi:docname="coin.svg"
   inkscape:version="1.3 (0e150ed, 2023-07-21)"
   xmlns:inkscape="http://www.inkscape.org/namespaces/inkscape"
   xmlns:sodipodi="http://sodipodi.sourceforge.net/DTD/sodipodi-0.dtd"
   xmlns="http://www.w3.org/2000/svg"
   xmlns:svg="http://www.w3.org/2000/svg"><sodipodi:namedview
   id="namedview13"
   pagecolor="#ffffff"
   bordercolor="#666666"
   borderopacity="1.0"
   inkscape:showpageshadow="2"
   inkscape:pageopacity="0.0"
   inkscape:pagecheckerboard="0"
   inkscape:deskcolor="#d1d1d1"
   inkscape:zoom="0.922"
   inkscape:cx="126"
   inkscape:cy="107"
   inkscape:window-width="1304"
   inkscape:window-height="896"
   inkscape:window-x="196"
   inkscape:window-y="25"
   inkscape:window-maximized="0"
   inkscape:current-layer="g13" />&#10;&#10;<defs
   id="defs1"><rect
   x="39"
   y="-192"
   width="129"
   height="138"
   id="rect4" /><rect
   x="70.5"
   y="-123"
   width="86.8"
   height="60.7"
   id="rect3" />&#10;</defs>&#10;<g
   style="opacity:1;fill:none;fill-rule:nonzero;stroke:none;stroke-width:0;stroke-linecap:butt;stroke-linejoin:miter;stroke-miterlimit:10;stroke-dasharray:none"
   transform="matrix(2.81,0,0,2.81,0.003,-19.7)"
   id="g13">&#10;	&#10;	&#10;	&#10;	&#10;	&#10;	&#10;	&#10;	&#10;	&#10;	&#10;	&#10;	&#10;	&#10;	<g
   id="g14"
   transform="rotate(-90,45,45)"><path
     d="M 50.1,90 H 41.4 C 22.4,90 6.96,69.9 6.96,45 6.96,20.1 22.4,0 41.4,0 H 48.6 Z"
     style="opacity:1;fill:#e4af18;fill-rule:nonzero;stroke:none;stroke-width:1;stroke-linecap:butt;stroke-linejoin:miter;stroke-miterlimit:10;stroke-dasharray:none"
     stroke-linecap="round"
     id="path1" /><path
     d="M 44.6,1.43 H 32.8 C 30.8,2.1 28.9,2.97 27.1,4.07 H 38.9 C 40.7,2.99 42.6,2.09 44.6,1.43 Z"
     style="opacity:1;fill:#c49214;fill-rule:nonzero;stroke:none;stroke-width:1;stroke-linecap:butt;stroke-linejoin:miter;stroke-miterlimit:10;stroke-dasharray:none"
     stroke-linecap="round"
     id="path2" /><path
     d="M 33.1,8.45 H 21.3 C 20.3,9.37 19.4,10.3 18.5,11.4 H 30.3 C 31.2,10.3 32.1,9.37 33.1,8.45 Z"
     style="opacity:1;fill:#c49214;fill-rule:nonzero;stroke:none;stroke-width:1;stroke-linecap:butt;stroke-linejoin:miter;stroke-miterlimit:10;stroke-dasharray:none"
     stroke-linecap="round"
     id="path3" /><path
     d="M 26.1,17.2 H 14.3 C 13.7,18.2 13.2,19.1 12.7,20.1 H 24.5 C 25,19.1 25.5,18.2 26.1,17.2 Z"
     style="opacity:1;fill:#c49214;fill-rule:nonzero;stroke:none;stroke-width:1;stroke-linecap:butt;stroke-linejoin:miter;stroke-miterlimit:10;stroke-dasharray:none"
     stroke-linecap="round"
     id="path4" /><path
     d="M 22,26 H 10.2 C 9.84,27 9.52,27.9 9.23,28.9 H 21 C 21.3,27.9 21.6,27 22,26 Z"
     style="opacity:1;fill:#c49214;fill-rule:nonzero;stroke:none;stroke-width:1;stroke-linecap:butt;stroke-linejoin:miter;stroke-miterlimit:10;stroke-dasharray:none"
     stroke-linecap="round"
     id="path5" /><path
     d="M 19.7,34.8 H 7.86 C 7.69,35.7 7.54,36.7 7.42,37.7 H 19.2 C 19.3,36.7 19.5,35.7 19.7,34.8 Z"
     style="opacity:1;fill:#c49214;fill-rule:nonzero;stroke:none;stroke-width:1;stroke-linecap:butt;stroke-linejoin:miter;stroke-miterlimit:10;stroke-dasharray:none"
     stroke-linecap="round"
     id="path6" /><path
     d="M 18.8,45 C 18.8,44.5 18.8,44 18.8,43.5 H 6.98 C 6.97,44 6.96,44.5 6.96,45 6.96,45.5 6.97,46 6.98,46.5 H 18.8 C 18.8,46 18.8,45.5 18.8,45 Z"
     style="opacity:1;fill:#c49214;fill-rule:nonzero;stroke:none;stroke-width:1;stroke-linecap:butt;stroke-linejoin:miter;stroke-miterlimit:10;stroke-dasharray:none"
     stroke-linecap="round"
     id="path7" /><path
     d="M 19.2,52.3 H 7.42 C 7.54,53.3 7.69,54.3 7.86,55.2 H 19.7 C 19.5,54.3 19.3,53.3 19.2,52.3 Z"
     style="opacity:1;fill:#c49214;fill-rule:nonzero;stroke:none;stroke-width:1;stroke-linecap:butt;stroke-linejoin:miter;stroke-miterlimit:10;stroke-dasharray:none"
     stroke-linecap="round"
     id="path8" /><path
     d="M 21,61.1 H 9.23 C 9.52,62.1 9.84,63 10.2,64 H 22 C 21.6,63 21.3,62.1 21,61.1 Z"
     style="opacity:1;fill:#c49214;fill-rule:nonzero;stroke:none;stroke-width:1;stroke-linecap:butt;stroke-linejoin:miter;stroke-miterlimit:10;stroke-dasharray:none"
     stroke-linecap="round"
     id="path9" /><path
     d="M 24.5,69.9 H 12.7 C 13.2,70.9 13.7,71.8 14.3,72.8 H 26.1 C 25.5,71.8 25,70.9 24.5,69.9 Z"
     style="opacity:1;fill:#c49214;fill-rule:nonzero;stroke:none;stroke-width:1;stroke-linecap:butt;stroke-linejoin:miter;stroke-miterlimit:10;stroke-dasharray:none"
     stroke-linecap="round"
     id="path10" /><path
     d="M 30.3,78.6 H 18.5 C 19.4,79.7 20.3,80.6 21.3,81.5 H 33.1 C 32.1,80.6 31.2,79.7 30.3,78.6 Z"
     style="opacity:1;fill:#c49214;fill-rule:nonzero;stroke:none;stroke-width:1;stroke-linecap:butt;stroke-linejoin:miter;stroke-miterlimit:10;stroke-dasharray:none"
     stroke-linecap="round"
     id="path11" /><path
     d="M 38.3,85.6 27.1,85.9 C 28.9,87 30.9,87.9 32.9,88.6 H 44.6 C 42.4,87.9 40.3,86.8 38.3,85.6 Z"
     style="opacity:1;fill:#c49214;fill-rule:nonzero;stroke:none;stroke-width:1;stroke-linecap:butt;stroke-linejoin:miter;stroke-miterlimit:10;stroke-dasharray:none"
     stroke-linecap="round"
     id="path12" /><ellipse
     cx="48.6"
     cy="45"
     rx="34.4"
     ry="45"
     style="opacity:1;fill:#ffd949;fill-rule:nonzero;stroke:none;stroke-width:1;stroke-linecap:butt;stroke-linejoin:miter;stroke-miterlimit:10;stroke-dasharray:none"
     id="ellipse12" /><ellipse
     cx="48.6"
     cy="45"
     rx="26.8"
     ry="35"
     style="opacity:1;fill:#e4af18;fill-rule:nonzero;stroke:none;stroke-width:1;stroke-linecap:butt;stroke-linejoin:miter;stroke-miterlimit:10;stroke-dasharray:none"
     id="ellipse13" /></g>&#10;	&#10;</g>&#10;</svg>
